<svg xmlns="http://www.w3.org/2000/svg" viewBox="0 0 175 150"><path d="M111.28,80.75a9.06,9.06,0,0,1,2.42-1.47c1.74-.71,4.75-1.76,7-1.57,2.45.2,5.66.63,7.15.84a1.55,1.55,0,0,0,1.33-.47c1-1,3.31-2.92,6.22-1.47a5.07,5.07,0,0,1,2.24,6.12,9.71,9.71,0,0,0-.54,6.36c1.26,3.86.36,1.46.36,1.46s.07,0,.09,0c1.65,4.16,1,4.22.41,4.43l-7.09,2.67a1.59,1.59,0,0,1-.57.1s-13.35.28-13.81-.46l-9.2-12.6C106.85,84.05,111.28,80.75,111.28,80.75Z" style="fill:#212f64"/><path d="M135.08,91.87c.46.07,4.53,2,4.84,3.49.68,3.26-1.93,5.28-4.29,7.78a56.73,56.73,0,0,1-10.43,8.63.57.57,0,0,1-.79-.18l-9.48-15L128.5,96c.19-.09,1.43-1.13,1.63-1.2Z" style="fill:#212f64"/><polygon points="110.49 86.6 99.24 112.24 107.99 112.24 117.22 97.24 110.49 86.6" style="fill:#212f64"/><path d="M129.84,96.2s1.66.69.81,2.14l-1.09,1.84-.66,1.12a2.69,2.69,0,0,1-4.66,0l-.63-1.1-1.48-2.59a1.82,1.82,0,0,1,1.48-2.66l6.23,1.28Z" style="fill:#f2f2f2;stroke:#ec1c24;stroke-miterlimit:10;stroke-width:0.5095406081773254px"/><path d="M119.44,90l-.18.68A.75.75,0,0,1,118,91l-2.47-3.07-.75-.92c-2.67-2.83-1.09-3.11,1-3.89a3.32,3.32,0,0,1,1.29-.19l3.16.41-.06,1.92A21,21,0,0,1,119.44,90Z" style="fill:#f2f2f2;stroke:#bf2033;stroke-miterlimit:10;stroke-width:0.2547703040886627px"/><polygon points="71.59 26.24 90.62 22.49 89.41 20.36 70.38 24.11 71.59 26.24" style="fill:#bf2033"/><polygon points="72.3 29.56 72.76 27.89 91.79 24.13 93 26.27 73.97 30.02 72.3 29.56" style="fill:#bf2033"/><polygon points="75.01 31.78 93.74 28.28 94.85 30.47 75.65 34.05 75.01 31.78" style="fill:#bf2033"/><path d="M122.3,112.08,57.23,7a.36.36,0,0,1,.33-.54l2,.15a.36.36,0,0,1,.28.16l65,105a.35.35,0,0,1-.3.54h-2A.35.35,0,0,1,122.3,112.08Z" style="fill:#212f64;stroke:#fff;stroke-miterlimit:10;stroke-width:0.4107840455884671px"/><polygon points="60.79 7.6 86.61 19.06 69.81 22.22 60.79 7.6" style="fill:#212f64;stroke:#fff;stroke-miterlimit:10;stroke-width:0.4107840455884671px"/><polygon points="68.28 12.74 67.55 12.51 66.95 12.97 66.95 12.21 66.32 11.77 67.05 11.54 67.27 10.81 67.71 11.43 68.47 11.41 68.03 12.02 68.28 12.74" style="fill:#f1f1f1"/><polygon points="70.32 15.45 69.59 15.21 68.99 15.68 68.99 14.91 68.36 14.48 69.09 14.24 69.3 13.51 69.75 14.13 70.51 14.11 70.06 14.73 70.32 15.45" style="fill:#f1f1f1"/><polygon points="71.34 18.18 70.61 17.94 70 18.4 70.01 17.64 69.38 17.21 70.11 16.97 70.32 16.24 70.77 16.86 71.53 16.84 71.08 17.46 71.34 18.18" style="fill:#f1f1f1"/><polygon points="73.37 20.9 72.65 20.66 72.04 21.13 72.05 20.37 71.42 19.93 72.14 19.7 72.36 18.97 72.81 19.59 73.57 19.57 73.12 20.18 73.37 20.9" style="fill:#f1f1f1"/><polygon points="77.45 20.45 76.73 20.22 76.12 20.68 76.12 19.92 75.49 19.48 76.22 19.25 76.44 18.52 76.89 19.14 77.65 19.12 77.2 19.73 77.45 20.45" style="fill:#f1f1f1"/><polygon points="74.39 15 73.67 14.76 73.06 15.23 73.06 14.46 72.44 14.03 73.16 13.8 73.38 13.07 73.83 13.68 74.59 13.67 74.14 14.28 74.39 15" style="fill:#f1f1f1"/><polygon points="75.41 17.73 74.69 17.49 74.08 17.95 74.08 17.19 73.45 16.76 74.18 16.52 74.4 15.79 74.85 16.41 75.61 16.39 75.16 17.01 75.41 17.73" style="fill:#f1f1f1"/><polygon points="81.53 19.7 80.8 19.46 80.2 19.93 80.2 19.16 79.57 18.73 80.3 18.5 80.51 17.76 80.96 18.38 81.72 18.36 81.27 18.98 81.53 19.7" style="fill:#f1f1f1"/><polygon points="79.49 16.97 78.76 16.74 78.16 17.2 78.16 16.44 77.53 16 78.26 15.77 78.48 15.04 78.92 15.65 79.69 15.64 79.24 16.25 79.49 16.97" style="fill:#f1f1f1"/><path d="M92.77,100.15l-5.5,11.38,8.07.12,5.75-14.55-1.4-3.21L91,77.44l.71-3.53,9.53,5.5a1.6,1.6,0,0,0,2.19-.58l.09-.16a1.6,1.6,0,0,0-.58-2.19L92.37,70.41l.83-4.09,2.09.49a6.73,6.73,0,0,0-11.58-6.07A4.54,4.54,0,0,0,77.53,63a4.06,4.06,0,0,0-1.24-1.77L81,53.1c0-.22-2.1-3.81-2.1-3.81L72.37,60.34a5,5,0,0,0-3,1.54,7.36,7.36,0,0,0-.82-.85l8.94-16.65c0-.22-2.2-3.75-2.2-3.75L64.91,59.46a6.62,6.62,0,0,0-6.73,3.59,6.7,6.7,0,0,0-.49,5l-1.1,1.93a3.51,3.51,0,0,0-1.66-2.27l-1.4-.8a3.54,3.54,0,0,0-4.83,1.29l-4.84,8.38a3.54,3.54,0,0,0,1.3,4.83l1.4.81a3.53,3.53,0,0,0,4.24-.56l.74,2.27L35,113.18H41.1l5.45-4.71-2.88,4.89,8.81-.65L60.32,101H76.55l-6,10.5H84.33M73,86.26H65.4l3.26-7.08,4.27-9.33,4.71,9.72,3.45,6.58Z" style="fill:#212f64"/><path d="M77,111.55l2.19-3.32-3.59,3.3" style="fill:#d1d3d4"/><rect x="80.01" y="115.43" width="90.21" height="26" style="fill:#bf2033"/><path d="M84.85,119.56h3.89c3.28,0,4.55,1.4,4.55,3.93v.63c0,2.45-.94,3.16-1.76,3.47.84.31,2.11.95,2.11,3.46v1.31c0,2.91-1.34,4.45-4.64,4.45H84.85Zm3.56,7c1.63,0,2.13-.46,2.13-2.17v-.68c0-1.43-.57-2-2-2h-.91v4.83Zm-.74,8h1c1.69,0,2.11-.68,2.11-2.35v-1.15c0-1.68-.47-2.4-2.33-2.4h-.76Z" style="fill:#fff"/><path d="M95.92,128c0-2.21,0-3.16,0-4.52h2.77c0,.25.08,1.44.08,2.16a3.14,3.14,0,0,1,3.24-2.36v3.27c-1.68,0-3.14.39-3.14,3.13v7.16H95.92Z" style="fill:#fff"/><path d="M111.6,134.07c0,.85,0,2.23.06,2.74H109c-.06-.25-.17-.79-.19-1a2.59,2.59,0,0,1-2.43,1.19c-2.21,0-3.1-1.86-3.1-3.88v-.23c0-3.3,2.44-4.17,5.09-4.17h.34V127c0-1-.14-1.63-1-1.63s-1.07.61-1.07,1.44v.22h-2.87v-.17c0-1.94.81-3.65,4-3.65,2.84,0,3.83,1.42,3.83,3.58Zm-2.85-3.32h-.49c-1.33,0-2.21.46-2.21,2.13v.21c0,.94.38,1.61,1.29,1.61s1.41-.62,1.41-2.42Z" style="fill:#fff"/><path d="M114.6,127.57c0-2.72,0-3.52,0-4.12h2.8a8.7,8.7,0,0,1,.1,1.21,2.83,2.83,0,0,1,2.71-1.42c1.79,0,3,1,3,3.51v10.06h-2.92v-9.56c0-1.2-.46-1.63-1.27-1.63-1,0-1.48.51-1.48,2.32v8.87H114.6Z" style="fill:#fff"/><path d="M134.37,118.81V133.1c0,2,0,3,0,3.71h-2.79a11.09,11.09,0,0,1-.11-1.27,2.62,2.62,0,0,1-2.59,1.48c-2.64,0-3.15-1.92-3.15-4.51v-5.23c0-2.32,1-4,3.37-4a2.62,2.62,0,0,1,2.32.94v-5.37Zm-5.68,8.63v5.29c0,1.23.32,1.9,1.33,1.9,1.19,0,1.43-1,1.43-2.5V128c0-1.45-.15-2.4-1.4-2.4C129,125.62,128.69,126.32,128.69,127.44Z" style="fill:#fff"/><path d="M144.83,134.07c0,.85,0,2.23,0,2.74h-2.67c-.06-.25-.16-.79-.19-1A2.57,2.57,0,0,1,139.6,137c-2.21,0-3.1-1.86-3.1-3.88v-.23c0-3.3,2.44-4.17,5.08-4.17h.34V127c0-1-.13-1.63-1-1.63s-1.06.61-1.06,1.44v.22H137v-.17c0-1.94.82-3.65,4.05-3.65,2.83,0,3.83,1.42,3.83,3.58ZM142,130.75h-.48c-1.34,0-2.21.46-2.21,2.13v.21c0,.94.37,1.61,1.28,1.61s1.41-.62,1.41-2.42Z" style="fill:#fff"/><path d="M156,136.06c0,3-.32,5.44-4.5,5.44-3.5,0-4.09-2-4.09-3.48V138h2.93V138a1.2,1.2,0,0,0,1.31,1.28c1.22,0,1.42-.85,1.42-2.53v-1.46a2.51,2.51,0,0,1-2.42,1.23c-2.68,0-3.26-1.9-3.26-4.19v-5c0-1.82.75-4.06,3.57-4.06,1.54,0,2.18.65,2.42,1.38a6.45,6.45,0,0,1,.14-1.17h2.53c0,.82-.05,1.93-.05,3.34Zm-5.69-8.6v4.7c0,1.35.35,2,1.3,2,1.25,0,1.46-.89,1.46-2.53v-3.92c0-1.13-.12-2.13-1.31-2.13C150.87,125.62,150.35,126.17,150.35,127.46Z" style="fill:#fff"/><path d="M161.44,130.84v2c0,1,.26,2,1.37,2s1.31-.94,1.31-1.9v-.07H167v.06c0,1.4-.33,4.16-4.09,4.16s-4.3-2.11-4.3-4.81v-4.38c0-1.83.64-4.59,4.28-4.59,3.14,0,4.16,1.92,4.16,4.57v3Zm2.78-2.09v-1.37c0-1.23-.31-1.9-1.36-1.9s-1.4.61-1.4,1.91v1.36Z" style="fill:#fff"/><path d="M11.43,131.82l-1.91,5H3.09l7.67-17.25h9l8,17.25H21.07l-2.09-5Zm6.78-2.13c-1.32-3.29-2.42-6.14-2.92-8h-.24c-.19,1.38-1.72,5.15-2.8,8Z" style="fill:#bf2033"/><path d="M50.25,132.49v.18c0,2.35-1.63,4.34-9.66,4.34-7.84,0-9.45-1.94-9.45-4.66v-4.8c0-2.2,2.07-4.22,9.78-4.22,8.28,0,9.33,2.2,9.33,3.9v.51H44v-.52c0-1.09-.49-1.93-3.2-1.93-2.42,0-3.31.68-3.31,2V133c0,1,.53,2,3.27,2,2.54,0,3.24-.69,3.24-2v-.54Z" style="fill:#bf2033"/><path d="M60.49,130.74v2c0,1.15.68,2.27,3.77,2.27s3.59-1,3.59-2.06v-.08H74V133c0,1.45-.89,4-9.66,4-8.56,0-10.06-2-10.06-4.66v-4.6c0-1.9,1.71-4.42,10.07-4.42,7.44,0,9.76,1.91,9.76,4.41v3Zm7.57-1.83v-1.49c0-1.23-.68-2.13-3.7-2.13-2.79,0-3.82.79-3.82,2.14v1.48Z" style="fill:#bf2033"/></svg>